<mxfile host="app.diagrams.net" modified="2023-04-28T06:00:51.753Z" agent="Mozilla/5.0 (Windows NT 10.0; Win64; x64) AppleWebKit/537.36 (KHTML, like Gecko) Chrome/112.0.0.0 Safari/537.36" etag="Pux21e4VldIRY_6yv7sQ" version="21.2.3" type="github">
  <diagram name="第 1 页" id="bl_G9bgx5-WTuEnTLWlf">
    <mxGraphModel dx="1434" dy="790" grid="1" gridSize="6" guides="1" tooltips="1" connect="1" arrows="1" fold="1" page="1" pageScale="1" pageWidth="827" pageHeight="1169" math="0" shadow="0">
      <root>
        <mxCell id="0" />
        <mxCell id="1" parent="0" />
        <object label="" id="eRSd76yyJLVuzePxJLU8-10">
          <mxCell style="edgeStyle=orthogonalEdgeStyle;rounded=0;orthogonalLoop=1;jettySize=auto;html=1;exitX=1;exitY=0.5;exitDx=0;exitDy=0;endArrow=none;endFill=0;" edge="1" parent="1" source="eRSd76yyJLVuzePxJLU8-2">
            <mxGeometry relative="1" as="geometry">
              <mxPoint x="400" y="320" as="targetPoint" />
            </mxGeometry>
          </mxCell>
        </object>
        <mxCell id="eRSd76yyJLVuzePxJLU8-25" value="表级锁" style="edgeLabel;html=1;align=center;verticalAlign=middle;resizable=0;points=[];" vertex="1" connectable="0" parent="eRSd76yyJLVuzePxJLU8-10">
          <mxGeometry x="0.2127" y="2" relative="1" as="geometry">
            <mxPoint x="-13" y="2" as="offset" />
          </mxGeometry>
        </mxCell>
        <mxCell id="eRSd76yyJLVuzePxJLU8-2" value="锁" style="rounded=0;whiteSpace=wrap;html=1;fillColor=#b0e3e6;strokeColor=#0e8088;" vertex="1" parent="1">
          <mxGeometry x="90" y="290" width="120" height="60" as="geometry" />
        </mxCell>
        <mxCell id="eRSd76yyJLVuzePxJLU8-9" value="" style="endArrow=none;html=1;rounded=0;exitX=0.75;exitY=0;exitDx=0;exitDy=0;fillColor=#b1ddf0;strokeColor=#0a0a0a;strokeWidth=1;" edge="1" parent="1" source="eRSd76yyJLVuzePxJLU8-2">
          <mxGeometry width="50" height="50" relative="1" as="geometry">
            <mxPoint x="150" y="290" as="sourcePoint" />
            <mxPoint x="400" y="160" as="targetPoint" />
          </mxGeometry>
        </mxCell>
        <mxCell id="eRSd76yyJLVuzePxJLU8-22" value="全局锁" style="edgeLabel;html=1;align=center;verticalAlign=middle;resizable=0;points=[];" vertex="1" connectable="0" parent="eRSd76yyJLVuzePxJLU8-9">
          <mxGeometry x="0.1194" relative="1" as="geometry">
            <mxPoint as="offset" />
          </mxGeometry>
        </mxCell>
        <mxCell id="eRSd76yyJLVuzePxJLU8-12" value="" style="endArrow=none;html=1;rounded=0;entryX=0.75;entryY=1;entryDx=0;entryDy=0;" edge="1" parent="1" target="eRSd76yyJLVuzePxJLU8-2">
          <mxGeometry width="50" height="50" relative="1" as="geometry">
            <mxPoint x="400" y="480" as="sourcePoint" />
            <mxPoint x="170" y="370" as="targetPoint" />
          </mxGeometry>
        </mxCell>
        <mxCell id="eRSd76yyJLVuzePxJLU8-24" value="行级锁" style="edgeLabel;html=1;align=center;verticalAlign=middle;resizable=0;points=[];" vertex="1" connectable="0" parent="eRSd76yyJLVuzePxJLU8-12">
          <mxGeometry x="-0.1384" y="-3" relative="1" as="geometry">
            <mxPoint as="offset" />
          </mxGeometry>
        </mxCell>
        <mxCell id="eRSd76yyJLVuzePxJLU8-14" value="全局锁" style="rounded=0;whiteSpace=wrap;html=1;fillColor=#fad9d5;strokeColor=#ae4132;" vertex="1" parent="1">
          <mxGeometry x="414" y="144" width="78" height="30" as="geometry" />
        </mxCell>
        <mxCell id="eRSd76yyJLVuzePxJLU8-15" value="表锁" style="rounded=0;whiteSpace=wrap;html=1;fillColor=#d0cee2;strokeColor=#56517e;" vertex="1" parent="1">
          <mxGeometry x="414" y="252" width="78" height="30" as="geometry" />
        </mxCell>
        <mxCell id="eRSd76yyJLVuzePxJLU8-16" value="元数据锁" style="rounded=0;whiteSpace=wrap;html=1;fillColor=#d0cee2;strokeColor=#56517e;" vertex="1" parent="1">
          <mxGeometry x="414" y="290" width="78" height="30" as="geometry" />
        </mxCell>
        <mxCell id="eRSd76yyJLVuzePxJLU8-17" value="意向锁" style="rounded=0;whiteSpace=wrap;html=1;fillColor=#d0cee2;strokeColor=#56517e;" vertex="1" parent="1">
          <mxGeometry x="414" y="330" width="78" height="30" as="geometry" />
        </mxCell>
        <mxCell id="eRSd76yyJLVuzePxJLU8-18" value="AUTO-INC锁" style="rounded=0;whiteSpace=wrap;html=1;fillColor=#d0cee2;strokeColor=#56517e;" vertex="1" parent="1">
          <mxGeometry x="414" y="372" width="78" height="30" as="geometry" />
        </mxCell>
        <mxCell id="eRSd76yyJLVuzePxJLU8-19" value="NextKeyLock" style="rounded=0;whiteSpace=wrap;html=1;fillColor=#d5e8d4;gradientColor=#97d077;strokeColor=#82b366;" vertex="1" parent="1">
          <mxGeometry x="414" y="528" width="78" height="30" as="geometry" />
        </mxCell>
        <mxCell id="eRSd76yyJLVuzePxJLU8-20" value="RecordLock" style="rounded=0;whiteSpace=wrap;html=1;fillColor=#d5e8d4;gradientColor=#97d077;strokeColor=#82b366;" vertex="1" parent="1">
          <mxGeometry x="414" y="444" width="78" height="30" as="geometry" />
        </mxCell>
        <mxCell id="eRSd76yyJLVuzePxJLU8-21" value="GapLock" style="rounded=0;whiteSpace=wrap;html=1;fillColor=#d5e8d4;gradientColor=#97d077;strokeColor=#82b366;" vertex="1" parent="1">
          <mxGeometry x="414" y="486" width="78" height="30" as="geometry" />
        </mxCell>
      </root>
    </mxGraphModel>
  </diagram>
</mxfile>
